<svg width="301" height="301" viewBox="0 0 301 301" fill="none" xmlns="http://www.w3.org/2000/svg">
<path d="M282.706 153.713C282.706 143.963 281.831 134.588 280.206 125.588H150.706V178.776H224.706C221.518 195.963 211.831 210.526 197.268 220.276V254.776H241.706C267.706 230.838 282.706 195.588 282.706 153.713Z" fill="#4285F4"/>
<path d="M150.706 288.088C187.831 288.088 218.956 275.776 241.706 254.776L197.268 220.276C184.956 228.526 169.206 233.401 150.706 233.401C114.893 233.401 84.5809 209.213 73.7684 176.713H27.8309V212.338C50.4559 257.276 96.9559 288.088 150.706 288.088Z" fill="#34A853"/>
<path d="M73.7684 176.713C71.0184 168.463 69.4559 159.651 69.4559 150.588C69.4559 141.526 71.0184 132.713 73.7684 124.463V88.8383H27.8309C18.2059 107.999 13.1974 129.146 13.2059 150.588C13.2059 172.776 18.5184 193.776 27.8309 212.338L73.7684 176.713Z" fill="#FBBC05"/>
<path d="M150.706 67.7758C170.893 67.7758 189.018 74.7133 203.268 88.3383L242.706 48.9008C218.893 26.7133 187.768 13.0883 150.706 13.0883C96.9559 13.0883 50.4559 43.9008 27.8309 88.8383L73.7684 124.463C84.5809 91.9633 114.893 67.7758 150.706 67.7758Z" fill="#EA4335"/>
</svg>
