<svg width="3477" height="1799" viewBox="0 0 3477 1799" fill="none" xmlns="http://www.w3.org/2000/svg">
<ellipse cx="2787.21" cy="422.207" rx="82.103" ry="81.0331" fill="#005EEA"/>
<ellipse cx="385.677" cy="1022.35" rx="82.103" ry="81.0331" fill="#005EEA"/>
<rect x="2705.52" y="756.88" width="334.676" height="163.79" transform="rotate(-90 2705.52 756.88)" fill="#005EEA"/>
<ellipse cx="112.465" cy="110.999" rx="112.465" ry="110.999" transform="matrix(1 0 0 -1 3027.13 1798.23)" fill="#005EEA"/>
<ellipse cx="112.465" cy="110.999" rx="112.465" ry="110.999" transform="matrix(1 0 0 -1 1540.19 222.003)" fill="#005EEA"/>
<rect x="3312.38" y="722.668" width="300.455" height="163.79" transform="rotate(-90 3312.38 722.668)" fill="#005EEA"/>
<path d="M2869.31 722.667C2869.31 772.616 2859.34 822.076 2839.97 868.223C2820.61 914.37 2792.22 956.3 2756.43 991.619C2720.65 1026.94 2678.16 1054.96 2631.41 1074.07C2584.65 1093.19 2534.54 1103.02 2483.93 1103.02L2483.93 941.372C2513.03 941.372 2541.84 935.715 2568.73 924.724C2595.61 913.733 2620.04 897.623 2640.62 877.314C2661.2 857.006 2677.52 832.896 2688.65 806.361C2699.79 779.827 2705.52 751.387 2705.52 722.667L2869.31 722.667Z" fill="#005EEA"/>
<path d="M607.26 722.667C607.26 772.616 617.228 822.076 636.595 868.223C655.962 914.37 684.349 956.3 720.134 991.619C755.92 1026.94 798.404 1054.96 845.16 1074.07C891.917 1093.19 942.03 1103.02 992.639 1103.02L992.639 941.372C963.539 941.372 934.724 935.715 907.839 924.724C880.954 913.733 856.526 897.623 835.949 877.314C815.372 857.006 799.05 832.896 787.913 806.361C776.777 779.827 771.046 751.387 771.046 722.667L607.26 722.667Z" fill="#005EEA"/>
<ellipse cx="3394.06" cy="422.207" rx="82.103" ry="81.0331" fill="#005EEA"/>
<path d="M2705.41 722.667C2705.41 823.543 2746.01 920.289 2818.29 991.619C2890.56 1062.95 2988.58 1103.02 3090.79 1103.02C3193 1103.02 3291.02 1062.95 3363.29 991.619C3435.57 920.289 3476.17 823.543 3476.17 722.667L3312.38 722.667C3312.38 780.671 3289.04 836.299 3247.48 877.314C3205.92 918.33 3149.56 941.372 3090.79 941.372C3032.02 941.372 2975.66 918.33 2934.1 877.314C2892.54 836.299 2869.2 780.671 2869.2 722.667L2705.41 722.667Z" fill="#005EEA"/>
<rect x="992.638" y="941.314" width="1491.29" height="161.703" fill="#005EEA"/>
<path d="M385.678 1103.02C309.457 1103.02 234.948 1080.72 171.573 1038.92C108.197 997.128 58.8022 937.724 29.6338 868.223C0.465376 798.722 -7.1664 722.245 7.70355 648.463C22.5735 574.681 59.2773 506.907 113.174 453.714C167.07 400.52 235.738 364.294 310.494 349.618C385.25 334.942 462.737 342.474 533.156 371.263C603.575 400.051 663.763 448.802 706.109 511.352C748.455 573.901 771.057 647.439 771.057 722.667L607.271 722.667C607.271 679.411 594.275 637.126 569.926 601.16C545.577 565.195 510.969 537.163 470.478 520.609C429.987 504.056 385.432 499.725 342.447 508.164C299.462 516.602 259.978 537.432 228.988 568.019C197.998 598.605 176.893 637.575 168.343 679.999C159.792 722.424 164.181 766.398 180.952 806.361C197.724 846.325 226.126 880.482 262.567 904.513C299.008 928.545 341.851 941.372 385.678 941.372L385.678 1103.02Z" fill="#005EEA"/>
<rect x="1291.28" y="342.311" width="722.746" height="189.836" rx="71" fill="#005EEA"/>
<path fill-rule="evenodd" clip-rule="evenodd" d="M2220.84 1305.08C2181.62 1305.08 2149.84 1336.87 2149.84 1376.08V1423.92C2149.84 1463.13 2181.62 1494.92 2220.84 1494.92H3405.17C3444.38 1494.92 3476.17 1463.13 3476.17 1423.92V1376.08C3476.17 1336.87 3444.38 1305.08 3405.17 1305.08H2220.84ZM2858.52 1305.53H2723.09V1494.92H2858.52V1305.53Z" fill="#005EEA"/>
</svg>
